<svg id="visual" viewBox="0 0 960 540" width="960" height="540" xmlns="http://www.w3.org/2000/svg" xmlns:xlink="http://www.w3.org/1999/xlink" version="1.1"><rect x="0" y="0" width="960" height="540" fill="#001220"></rect><defs><linearGradient id="grad1_0" x1="43.8%" y1="0%" x2="100%" y2="100%"><stop offset="14.444444444444446%" stop-color="#715df2" stop-opacity="1"></stop><stop offset="85.55555555555554%" stop-color="#715df2" stop-opacity="1"></stop></linearGradient></defs><defs><linearGradient id="grad1_1" x1="43.8%" y1="0%" x2="100%" y2="100%"><stop offset="14.444444444444446%" stop-color="#715df2" stop-opacity="1"></stop><stop offset="85.55555555555554%" stop-color="#004cae" stop-opacity="1"></stop></linearGradient></defs><defs><linearGradient id="grad1_2" x1="43.8%" y1="0%" x2="100%" y2="100%"><stop offset="14.444444444444446%" stop-color="#003165" stop-opacity="1"></stop><stop offset="85.55555555555554%" stop-color="#004cae" stop-opacity="1"></stop></linearGradient></defs><defs><linearGradient id="grad1_3" x1="43.8%" y1="0%" x2="100%" y2="100%"><stop offset="14.444444444444446%" stop-color="#003165" stop-opacity="1"></stop><stop offset="85.55555555555554%" stop-color="#001220" stop-opacity="1"></stop></linearGradient></defs><defs><linearGradient id="grad2_0" x1="0%" y1="0%" x2="56.3%" y2="100%"><stop offset="14.444444444444446%" stop-color="#715df2" stop-opacity="1"></stop><stop offset="85.55555555555554%" stop-color="#715df2" stop-opacity="1"></stop></linearGradient></defs><defs><linearGradient id="grad2_1" x1="0%" y1="0%" x2="56.3%" y2="100%"><stop offset="14.444444444444446%" stop-color="#004cae" stop-opacity="1"></stop><stop offset="85.55555555555554%" stop-color="#715df2" stop-opacity="1"></stop></linearGradient></defs><defs><linearGradient id="grad2_2" x1="0%" y1="0%" x2="56.3%" y2="100%"><stop offset="14.444444444444446%" stop-color="#004cae" stop-opacity="1"></stop><stop offset="85.55555555555554%" stop-color="#003165" stop-opacity="1"></stop></linearGradient></defs><defs><linearGradient id="grad2_3" x1="0%" y1="0%" x2="56.3%" y2="100%"><stop offset="14.444444444444446%" stop-color="#001220" stop-opacity="1"></stop><stop offset="85.55555555555554%" stop-color="#003165" stop-opacity="1"></stop></linearGradient></defs><g transform="translate(960, 0)"><path d="M0 405C-53.5 401.6 -107 398.3 -155 374.2C-202.9 350.1 -245.3 305.2 -256 256C-266.6 206.8 -245.6 153.2 -265.2 109.8C-284.7 66.4 -344.9 33.2 -405 0L0 0Z" fill="#002241"></path><path d="M0 303.8C-40.1 301.2 -80.3 298.7 -116.2 280.6C-152.2 262.5 -184 228.9 -192 192C-200 155.1 -184.2 114.9 -198.9 82.4C-213.5 49.8 -258.6 24.9 -303.7 0L0 0Z" fill="#003f8a"></path><path d="M0 202.5C-26.8 200.8 -53.5 199.1 -77.5 187.1C-101.5 175 -122.7 152.6 -128 128C-133.3 103.4 -122.8 76.6 -132.6 54.9C-142.4 33.2 -172.4 16.6 -202.5 0L0 0Z" fill="#4056d1"></path><path d="M0 101.3C-13.4 100.4 -26.8 99.6 -38.7 93.5C-50.7 87.5 -61.3 76.3 -64 64C-66.7 51.7 -61.4 38.3 -66.3 27.5C-71.2 16.6 -86.2 8.3 -101.2 0L0 0Z" fill="#715df2"></path></g><g transform="translate(0, 540)"><path d="M0 -405C59.1 -407 118.2 -408.9 155 -374.2C191.8 -339.4 206.2 -267.9 219.9 -219.9C233.6 -171.9 246.4 -147.5 277.2 -114.8C307.9 -82.1 356.4 -41 405 0L0 0Z" fill="#002241"></path><path d="M0 -303.7C44.3 -305.2 88.7 -306.7 116.2 -280.6C143.8 -254.5 154.7 -200.9 164.9 -164.9C175.2 -129 184.8 -110.6 207.9 -86.1C230.9 -61.6 267.3 -30.8 303.8 0L0 0Z" fill="#003f8a"></path><path d="M0 -202.5C29.6 -203.5 59.1 -204.5 77.5 -187.1C95.9 -169.7 103.1 -133.9 110 -110C116.8 -86 123.2 -73.8 138.6 -57.4C153.9 -41 178.2 -20.5 202.5 0L0 0Z" fill="#4056d1"></path><path d="M0 -101.2C14.8 -101.7 29.6 -102.2 38.7 -93.5C47.9 -84.8 51.6 -67 55 -55C58.4 -43 61.6 -36.9 69.3 -28.7C77 -20.5 89.1 -10.3 101.3 0L0 0Z" fill="#715df2"></path></g></svg>